<svg id="erVXi74ZvP91" xmlns="http://www.w3.org/2000/svg" xmlns:xlink="http://www.w3.org/1999/xlink" viewBox="0 0 1000 1000" shape-rendering="geometricPrecision" text-rendering="geometricPrecision"><ellipse rx="795.605706" ry="795.605706" transform="matrix(.602127 0 0 0.602129 499.999865 498.420325)" fill="rgba(0,0,0,0.32)" stroke-width="0"/><g transform="matrix(.673911 0 0 0.673911 163.045168 163.043284)" opacity="0.7"><g transform="matrix(.1 0 0-.1 0 511)"><path d="M4676.6,5032.2c-714-72.9-1230.8-216.6-1786.1-491-896.3-443.9-1588.9-1080.7-2101.4-1929.8C130.9,1520,-64.3,220.6,240.2,-1048.8c51.5-218.7,57.9-231.6,100.8-218.7c25.7,8.6,152.2,47.2,278.7,85.8c128.7,38.6,238,75,244.5,79.3c4.3,6.4-10.7,85.8-34.3,178C630.5,-143.9,664.8,733,924.2,1517.8C1419.5,3023.1,2667.5,4097.3,4237,4369.6c1235.1,214.4,2519.5-107.2,3471.5-868.4c225.1-178,568.2-529.6,733.3-750.5c739.8-984.2,1020.7-2281.5,767.6-3527.3-223-1100-887.7-2077.8-1831.2-2697.4-497.5-323.8-1104.3-551.1-1736.8-649.7-351.6-53.6-994.9-49.3-1325.1,10.7-139.4,23.6-274.5,49.3-302.3,57.9-47.2,10.7-53.6,2.2-120.1-270.2-40.7-163-62.2-289.5-51.5-300.2s126.5-38.6,257.3-62.2c1644.6-295.9,3252.8,229.4,4419.3,1443.1c905,939.3,1381,2105.7,1381,3379.4c0,1260.8-473.9,2431.6-1357.3,3357.9-926.3,969.2-2127.1,1509.5-3426.5,1539.6-195.1,4.2-392.4,4.2-439.6-.1Z" fill="#fff"/><path d="M4794.6,3632c-40.7-21.4-94.3-72.9-117.9-111.5-42.9-70.8-42.9-111.5-42.9-1820.4v-1747.6l49.3-70.8c100.8-139.4-2.1-132.9,1917-132.9c1689.6,0,1745.4,2.1,1811.9,42.9c143.7,85.8,186.6,235.9,109.3,383.8-94.3,184.4,8.6,173.7-1736.8,173.7h-1539.6v1528.8v1528.8l-47.2,94.3c-83.6,158.8-250.9,214.6-403.1,130.9Z" fill="#fff"/><path d="M478.2,-1912.9c-42.9-15-94.4-40.8-113.7-55.8-90-75-122.2-248.7-64.3-358.1c17.2-32.2,248.7-274.5,514.6-540.4l484.6-480.3-501.8-506c-325.9-325.9-508.2-525.3-516.8-563.9-30-115.8,2.1-235.9,83.6-308.8c87.9-81.5,154.4-102.9,265.9-81.5c68.6,12.9,152.2,87.9,589.7,521l508.2,506l510.3-506c435.3-433.1,518.9-508.2,587.5-521c111.5-21.4,178,0,265.9,81.5c81.5,72.9,113.6,190.8,85.8,308.8-10.7,38.6-188.7,233.7-518.9,563.9L2157,-3349.6l484.6,482.5c265.9,265.9,497.5,508.2,514.6,540.4c117.9,225.1-100.8,488.9-349.5,420.3-64.3-17.1-182.3-122.2-581.1-516.7l-497.5-497.5-488.7,486.6c-268,265.9-506,493.2-529.6,506-83.6,38.6-150.1,45.1-231.6,15.1Z" fill="#fff"/></g></g></svg>
