<svg id="eCoyRsAGwFK1" xmlns="http://www.w3.org/2000/svg" xmlns:xlink="http://www.w3.org/1999/xlink" viewBox="0 0 1024 1024" shape-rendering="geometricPrecision" text-rendering="geometricPrecision"><ellipse rx="102.4" ry="102.4" transform="matrix(4.792424 0 0 4.792424 512.000009 511.476175)" fill="rgba(0,0,0,0.32)" stroke-width="0"/><path d="M199.49494,598.2768c-4.60604.01212-9.02758-1.80913-12.28884-5.06182s-5.09412-7.66943-5.0941-12.27549v-217.03578c0-64.33056,52.28569-112.87503,121.58931-112.87503h478.99254l-74.59606-74.59606c-6.75243-6.75243-6.75243-17.79356,0-24.54599s17.79356-6.75243,24.54598,0l85.72845,85.72845c8.25804,8.21241,12.68361,19.11667,12.68361,30.75092.05365,11.52045-4.51526,22.58115-12.68361,30.70529l-85.72845,85.72845c-3.21368,3.31939-7.65318,5.16781-12.27299,5.10995-7.04093.02981-13.40063-4.20161-16.09306-10.70748s-1.18281-13.99397,3.82007-18.94845l74.50483-74.50483h-478.90131c-50.32383,0-86.82344,32.84965-86.82344,78.15478v216.99016c.01216,4.61396-1.81535,9.04244-5.07792,12.30502s-7.69106,5.09008-12.30502,5.07792l.00001-.00001ZM720.34431,771.92368h-478.85432l74.51078,74.55045c3.26827,3.23866,5.10688,7.64904,5.10688,12.25018s-1.83861,9.01152-5.10688,12.25018c-3.24197,3.2832-7.65894,5.13866-12.27299,5.15557-4.63296.01063-9.07432-1.84815-12.31862-5.15557l-85.72845-85.72845c-8.15489-8.14679-12.73694-19.20107-12.73694-30.72811s4.58205-22.58131,12.73694-30.72811l85.72845-85.72845c6.89502-6.20162,17.43891-5.9178,23.99032.64576s6.81568,17.10796.60129,23.99147l-74.45919,74.45919h478.80273c45.48763,0,86.82344-45.44201,86.82344-95.49209v-199.60722c0-6.20218,3.30882-11.93322,8.68006-15.03431s11.98888-3.10109,17.36013,0s8.68006,8.83213,8.68006,15.03431v199.65285c0,69.39488-56.75689,130.21234-121.54369,130.21234v.00001Z" transform="translate(0 0.000001)" opacity="0.7" fill="#fff" stroke-width="26"/><g transform="matrix(.789374 0 0 0.789374 103.018397 93.575953)" opacity="0.7"><line x1="-27.442573" y1="-37.635529" x2="27.442573" y2="37.635528" transform="matrix(1.203019-.153045 0.169373 1.331365 402.829091 590.270054)" fill="none" stroke="#fff" stroke-width="30" stroke-linecap="round" stroke-linejoin="round"/><line x1="-116.826952" y1="106.633997" x2="116.826952" y2="-106.633997" transform="matrix(.973512 0 0 1 559.044411 530.070746)" fill="rgba(255,255,255,0)" stroke="#fff" stroke-width="40" stroke-linecap="round" stroke-linejoin="round"/></g></svg>
